<svg width="161" height="55" viewBox="0 0 161 55" fill="none" xmlns="http://www.w3.org/2000/svg">
<path d="M1.8 36V19.2H5.712L12.648 30.624H10.584L17.376 19.2H21.288L21.336 36H16.944L16.92 25.848H17.664L12.6 34.344H10.488L5.28 25.848H6.168V36H1.8Z" fill="white"/>
<path d="M74.048 25.704H81.848V29.256H74.048V25.704ZM74.384 32.328H83.168V36H69.68V19.2H82.856V22.872H74.384V32.328ZM87.485 36V19.2H91.397L100.661 30.384H98.813V19.2H103.469V36H99.557L90.293 24.816H92.141V36H87.485ZM108.501 36V19.2H113.253V36H108.501ZM126.066 36.336C123.586 36.336 121.65 35.656 120.258 34.296C118.866 32.936 118.17 31.008 118.17 28.512V19.2H122.922V28.368C122.922 29.808 123.202 30.84 123.762 31.464C124.338 32.088 125.122 32.4 126.114 32.4C127.106 32.4 127.882 32.088 128.442 31.464C129.002 30.84 129.282 29.808 129.282 28.368V19.2H133.962V28.512C133.962 31.008 133.266 32.936 131.874 34.296C130.482 35.656 128.546 36.336 126.066 36.336ZM138.861 36V19.2H142.773L149.733 30.624H147.669L154.437 19.2H158.349L158.397 36H154.029L153.981 25.848H154.725L149.661 34.344H147.549L142.341 25.848H143.253V36H138.861Z" fill="white"/>
<rect x="28" y="19" width="7" height="17" fill="#3444B1"/>
<rect x="42" y="7" width="7" height="41" fill="#3444B1"/>
<rect x="56" width="7" height="55" fill="#3444B1"/>
</svg>
